<mxfile host="app.diagrams.net" agent="Mozilla/5.0 (X11; Linux x86_64) AppleWebKit/537.36 (KHTML, like Gecko) Chrome/131.0.0.0 Safari/537.36" version="26.0.5">
  <diagram name="Page-1" id="Opu10CO68IdQe3Ck3Klx">
    <mxGraphModel dx="1362" dy="765" grid="1" gridSize="10" guides="1" tooltips="1" connect="1" arrows="1" fold="1" page="1" pageScale="1" pageWidth="827" pageHeight="1169" math="0" shadow="0">
      <root>
        <mxCell id="0" />
        <mxCell id="1" parent="0" />
        <mxCell id="pH7Bs4LpN4uAQdPLpX-Y-2" value="Bandpay" style="swimlane;fontStyle=0;align=center;verticalAlign=top;childLayout=stackLayout;horizontal=1;startSize=30;horizontalStack=0;resizeParent=1;resizeParentMax=0;resizeLast=0;collapsible=0;marginBottom=0;html=1;whiteSpace=wrap;" vertex="1" parent="1">
          <mxGeometry x="370" y="610" width="150" height="130" as="geometry" />
        </mxCell>
        <mxCell id="pH7Bs4LpN4uAQdPLpX-Y-3" value="&lt;div&gt;&lt;div&gt;&amp;nbsp; &amp;nbsp; - database : Database&lt;/div&gt;&lt;div&gt;&amp;nbsp; &amp;nbsp; - app : FastAPI&lt;/div&gt;&lt;div&gt;&amp;nbsp; &amp;nbsp; - models : Models&lt;/div&gt;&lt;/div&gt;" style="text;html=1;strokeColor=none;fillColor=none;align=left;verticalAlign=middle;spacingLeft=4;spacingRight=4;overflow=hidden;rotatable=0;points=[[0,0.5],[1,0.5]];portConstraint=eastwest;whiteSpace=wrap;" vertex="1" parent="pH7Bs4LpN4uAQdPLpX-Y-2">
          <mxGeometry y="30" width="150" height="50" as="geometry" />
        </mxCell>
        <mxCell id="pH7Bs4LpN4uAQdPLpX-Y-4" value="" style="line;strokeWidth=1;fillColor=none;align=left;verticalAlign=middle;spacingTop=-1;spacingLeft=3;spacingRight=3;rotatable=0;labelPosition=right;points=[];portConstraint=eastwest;" vertex="1" parent="pH7Bs4LpN4uAQdPLpX-Y-2">
          <mxGeometry y="80" width="150" height="8" as="geometry" />
        </mxCell>
        <mxCell id="pH7Bs4LpN4uAQdPLpX-Y-5" value="&lt;div&gt;- _setup_routes() : void&lt;/div&gt;&lt;div&gt;&amp;nbsp; &amp;nbsp; + get_app() : FastAPI&lt;/div&gt;" style="text;html=1;strokeColor=none;fillColor=none;align=left;verticalAlign=middle;spacingLeft=4;spacingRight=4;overflow=hidden;rotatable=0;points=[[0,0.5],[1,0.5]];portConstraint=eastwest;whiteSpace=wrap;" vertex="1" parent="pH7Bs4LpN4uAQdPLpX-Y-2">
          <mxGeometry y="88" width="150" height="42" as="geometry" />
        </mxCell>
        <mxCell id="pH7Bs4LpN4uAQdPLpX-Y-6" value="Database" style="swimlane;fontStyle=0;align=center;verticalAlign=top;childLayout=stackLayout;horizontal=1;startSize=30;horizontalStack=0;resizeParent=1;resizeParentMax=0;resizeLast=0;collapsible=0;marginBottom=0;html=1;whiteSpace=wrap;" vertex="1" parent="1">
          <mxGeometry x="30" y="930" width="180" height="144" as="geometry" />
        </mxCell>
        <mxCell id="pH7Bs4LpN4uAQdPLpX-Y-7" value="&lt;div&gt;- base : declarative_base&lt;/div&gt;&lt;div&gt;&amp;nbsp; &amp;nbsp; - _engine : Engine&lt;/div&gt;&lt;div&gt;&amp;nbsp; &amp;nbsp; - _session_local : Sessionmaker&lt;/div&gt;" style="text;html=1;strokeColor=none;fillColor=none;align=left;verticalAlign=middle;spacingLeft=4;spacingRight=4;overflow=hidden;rotatable=0;points=[[0,0.5],[1,0.5]];portConstraint=eastwest;whiteSpace=wrap;" vertex="1" parent="pH7Bs4LpN4uAQdPLpX-Y-6">
          <mxGeometry y="30" width="180" height="70" as="geometry" />
        </mxCell>
        <mxCell id="pH7Bs4LpN4uAQdPLpX-Y-8" value="" style="line;strokeWidth=1;fillColor=none;align=left;verticalAlign=middle;spacingTop=-1;spacingLeft=3;spacingRight=3;rotatable=0;labelPosition=right;points=[];portConstraint=eastwest;" vertex="1" parent="pH7Bs4LpN4uAQdPLpX-Y-6">
          <mxGeometry y="100" width="180" height="8" as="geometry" />
        </mxCell>
        <mxCell id="pH7Bs4LpN4uAQdPLpX-Y-9" value="&lt;div&gt;+ create_tables() : void&lt;/div&gt;&lt;div&gt;&amp;nbsp; &amp;nbsp; + get_session() : Session&lt;/div&gt;" style="text;html=1;strokeColor=none;fillColor=none;align=left;verticalAlign=middle;spacingLeft=4;spacingRight=4;overflow=hidden;rotatable=0;points=[[0,0.5],[1,0.5]];portConstraint=eastwest;whiteSpace=wrap;" vertex="1" parent="pH7Bs4LpN4uAQdPLpX-Y-6">
          <mxGeometry y="108" width="180" height="36" as="geometry" />
        </mxCell>
        <mxCell id="pH7Bs4LpN4uAQdPLpX-Y-97" style="edgeStyle=orthogonalEdgeStyle;rounded=0;orthogonalLoop=1;jettySize=auto;html=1;endArrow=none;endFill=0;" edge="1" parent="1" source="pH7Bs4LpN4uAQdPLpX-Y-10">
          <mxGeometry relative="1" as="geometry">
            <mxPoint x="1600" y="840" as="targetPoint" />
            <Array as="points">
              <mxPoint x="1760" y="840" />
            </Array>
          </mxGeometry>
        </mxCell>
        <mxCell id="pH7Bs4LpN4uAQdPLpX-Y-10" value="UserCreate" style="swimlane;fontStyle=0;align=center;verticalAlign=top;childLayout=stackLayout;horizontal=1;startSize=30;horizontalStack=0;resizeParent=1;resizeParentMax=0;resizeLast=0;collapsible=0;marginBottom=0;html=1;whiteSpace=wrap;" vertex="1" parent="1">
          <mxGeometry x="1690" y="890" width="140" height="110" as="geometry" />
        </mxCell>
        <mxCell id="pH7Bs4LpN4uAQdPLpX-Y-11" value="&lt;div&gt;&amp;nbsp;+id : str&lt;/div&gt;&lt;div&gt;&amp;nbsp; +name : str&lt;/div&gt;&lt;div&gt;&amp;nbsp; +status : str&lt;/div&gt;" style="text;html=1;strokeColor=none;fillColor=none;align=left;verticalAlign=middle;spacingLeft=4;spacingRight=4;overflow=hidden;rotatable=0;points=[[0,0.5],[1,0.5]];portConstraint=eastwest;whiteSpace=wrap;" vertex="1" parent="pH7Bs4LpN4uAQdPLpX-Y-10">
          <mxGeometry y="30" width="140" height="50" as="geometry" />
        </mxCell>
        <mxCell id="pH7Bs4LpN4uAQdPLpX-Y-12" value="" style="line;strokeWidth=1;fillColor=none;align=left;verticalAlign=middle;spacingTop=-1;spacingLeft=3;spacingRight=3;rotatable=0;labelPosition=right;points=[];portConstraint=eastwest;" vertex="1" parent="pH7Bs4LpN4uAQdPLpX-Y-10">
          <mxGeometry y="80" width="140" height="30" as="geometry" />
        </mxCell>
        <mxCell id="pH7Bs4LpN4uAQdPLpX-Y-13" value="Models" style="swimlane;fontStyle=0;align=center;verticalAlign=top;childLayout=stackLayout;horizontal=1;startSize=30;horizontalStack=0;resizeParent=1;resizeParentMax=0;resizeLast=0;collapsible=0;marginBottom=0;html=1;whiteSpace=wrap;" vertex="1" parent="1">
          <mxGeometry x="570" y="240" width="140" height="90" as="geometry" />
        </mxCell>
        <mxCell id="pH7Bs4LpN4uAQdPLpX-Y-14" value="+define() : void" style="text;html=1;strokeColor=none;fillColor=none;align=left;verticalAlign=middle;spacingLeft=4;spacingRight=4;overflow=hidden;rotatable=0;points=[[0,0.5],[1,0.5]];portConstraint=eastwest;whiteSpace=wrap;" vertex="1" parent="pH7Bs4LpN4uAQdPLpX-Y-13">
          <mxGeometry y="30" width="140" height="30" as="geometry" />
        </mxCell>
        <mxCell id="pH7Bs4LpN4uAQdPLpX-Y-15" value="" style="line;strokeWidth=1;fillColor=none;align=left;verticalAlign=middle;spacingTop=-1;spacingLeft=3;spacingRight=3;rotatable=0;labelPosition=right;points=[];portConstraint=eastwest;" vertex="1" parent="pH7Bs4LpN4uAQdPLpX-Y-13">
          <mxGeometry y="60" width="140" height="30" as="geometry" />
        </mxCell>
        <mxCell id="pH7Bs4LpN4uAQdPLpX-Y-16" value="BankAPI&amp;nbsp;" style="swimlane;fontStyle=0;align=center;verticalAlign=top;childLayout=stackLayout;horizontal=1;startSize=30;horizontalStack=0;resizeParent=1;resizeParentMax=0;resizeLast=0;collapsible=0;marginBottom=0;html=1;whiteSpace=wrap;" vertex="1" parent="1">
          <mxGeometry x="200" y="90" width="140" height="108" as="geometry" />
        </mxCell>
        <mxCell id="pH7Bs4LpN4uAQdPLpX-Y-17" value="&lt;div&gt;&lt;div&gt;+app : FastAPI&lt;/div&gt;&lt;div&gt;&amp;nbsp; &amp;nbsp; +payments : dict&lt;/div&gt;&lt;/div&gt;" style="text;html=1;strokeColor=none;fillColor=none;align=left;verticalAlign=middle;spacingLeft=4;spacingRight=4;overflow=hidden;rotatable=0;points=[[0,0.5],[1,0.5]];portConstraint=eastwest;whiteSpace=wrap;" vertex="1" parent="pH7Bs4LpN4uAQdPLpX-Y-16">
          <mxGeometry y="30" width="140" height="50" as="geometry" />
        </mxCell>
        <mxCell id="pH7Bs4LpN4uAQdPLpX-Y-18" value="" style="line;strokeWidth=1;fillColor=none;align=left;verticalAlign=middle;spacingTop=-1;spacingLeft=3;spacingRight=3;rotatable=0;labelPosition=right;points=[];portConstraint=eastwest;" vertex="1" parent="pH7Bs4LpN4uAQdPLpX-Y-16">
          <mxGeometry y="80" width="140" height="8" as="geometry" />
        </mxCell>
        <mxCell id="pH7Bs4LpN4uAQdPLpX-Y-19" value="+get_app() : FastAPI" style="text;html=1;strokeColor=none;fillColor=none;align=left;verticalAlign=middle;spacingLeft=4;spacingRight=4;overflow=hidden;rotatable=0;points=[[0,0.5],[1,0.5]];portConstraint=eastwest;whiteSpace=wrap;" vertex="1" parent="pH7Bs4LpN4uAQdPLpX-Y-16">
          <mxGeometry y="88" width="140" height="20" as="geometry" />
        </mxCell>
        <mxCell id="pH7Bs4LpN4uAQdPLpX-Y-23" value="TransactionRoutes" style="swimlane;fontStyle=0;align=center;verticalAlign=top;childLayout=stackLayout;horizontal=1;startSize=30;horizontalStack=0;resizeParent=1;resizeParentMax=0;resizeLast=0;collapsible=0;marginBottom=0;html=1;whiteSpace=wrap;" vertex="1" parent="1">
          <mxGeometry x="1005" y="490" width="180" height="130" as="geometry" />
        </mxCell>
        <mxCell id="pH7Bs4LpN4uAQdPLpX-Y-24" value="&lt;div&gt;- PAYMENT_TYPE : List&amp;lt;String&amp;gt;&lt;/div&gt;&lt;div&gt;&amp;nbsp; &amp;nbsp; - BANK_API_URL : String&lt;/div&gt;&lt;div&gt;&amp;nbsp; &amp;nbsp; - User : User&lt;/div&gt;&lt;div&gt;&amp;nbsp; &amp;nbsp; - Transaction : Transaction&lt;/div&gt;" style="text;html=1;strokeColor=none;fillColor=none;align=left;verticalAlign=middle;spacingLeft=4;spacingRight=4;overflow=hidden;rotatable=0;points=[[0,0.5],[1,0.5]];portConstraint=eastwest;whiteSpace=wrap;" vertex="1" parent="pH7Bs4LpN4uAQdPLpX-Y-23">
          <mxGeometry y="30" width="180" height="70" as="geometry" />
        </mxCell>
        <mxCell id="pH7Bs4LpN4uAQdPLpX-Y-25" value="" style="line;strokeWidth=1;fillColor=none;align=left;verticalAlign=middle;spacingTop=-1;spacingLeft=3;spacingRight=3;rotatable=0;labelPosition=right;points=[];portConstraint=eastwest;" vertex="1" parent="pH7Bs4LpN4uAQdPLpX-Y-23">
          <mxGeometry y="100" width="180" height="30" as="geometry" />
        </mxCell>
        <mxCell id="pH7Bs4LpN4uAQdPLpX-Y-26" value="UserRoutes" style="swimlane;fontStyle=0;align=center;verticalAlign=top;childLayout=stackLayout;horizontal=1;startSize=30;horizontalStack=0;resizeParent=1;resizeParentMax=0;resizeLast=0;collapsible=0;marginBottom=0;html=1;whiteSpace=wrap;" vertex="1" parent="1">
          <mxGeometry x="370" y="340" width="140" height="130" as="geometry" />
        </mxCell>
        <mxCell id="pH7Bs4LpN4uAQdPLpX-Y-27" value="+User" style="text;html=1;strokeColor=none;fillColor=none;align=left;verticalAlign=middle;spacingLeft=4;spacingRight=4;overflow=hidden;rotatable=0;points=[[0,0.5],[1,0.5]];portConstraint=eastwest;whiteSpace=wrap;" vertex="1" parent="pH7Bs4LpN4uAQdPLpX-Y-26">
          <mxGeometry y="30" width="140" height="70" as="geometry" />
        </mxCell>
        <mxCell id="pH7Bs4LpN4uAQdPLpX-Y-28" value="" style="line;strokeWidth=1;fillColor=none;align=left;verticalAlign=middle;spacingTop=-1;spacingLeft=3;spacingRight=3;rotatable=0;labelPosition=right;points=[];portConstraint=eastwest;" vertex="1" parent="pH7Bs4LpN4uAQdPLpX-Y-26">
          <mxGeometry y="100" width="140" height="30" as="geometry" />
        </mxCell>
        <mxCell id="pH7Bs4LpN4uAQdPLpX-Y-29" value="PaymentRequestCreat" style="swimlane;fontStyle=0;align=center;verticalAlign=top;childLayout=stackLayout;horizontal=1;startSize=30;horizontalStack=0;resizeParent=1;resizeParentMax=0;resizeLast=0;collapsible=0;marginBottom=0;html=1;whiteSpace=wrap;" vertex="1" parent="1">
          <mxGeometry x="560" y="360" width="140" height="120" as="geometry" />
        </mxCell>
        <mxCell id="pH7Bs4LpN4uAQdPLpX-Y-30" value="&lt;div&gt;&amp;nbsp; +amount : float&lt;/div&gt;&lt;div&gt;&amp;nbsp; +id : str&lt;/div&gt;&lt;div&gt;&amp;nbsp; +status : str&lt;/div&gt;" style="text;html=1;strokeColor=none;fillColor=none;align=left;verticalAlign=middle;spacingLeft=4;spacingRight=4;overflow=hidden;rotatable=0;points=[[0,0.5],[1,0.5]];portConstraint=eastwest;whiteSpace=wrap;" vertex="1" parent="pH7Bs4LpN4uAQdPLpX-Y-29">
          <mxGeometry y="30" width="140" height="60" as="geometry" />
        </mxCell>
        <mxCell id="pH7Bs4LpN4uAQdPLpX-Y-31" value="" style="line;strokeWidth=1;fillColor=none;align=left;verticalAlign=middle;spacingTop=-1;spacingLeft=3;spacingRight=3;rotatable=0;labelPosition=right;points=[];portConstraint=eastwest;" vertex="1" parent="pH7Bs4LpN4uAQdPLpX-Y-29">
          <mxGeometry y="90" width="140" height="30" as="geometry" />
        </mxCell>
        <mxCell id="pH7Bs4LpN4uAQdPLpX-Y-100" style="edgeStyle=orthogonalEdgeStyle;rounded=0;orthogonalLoop=1;jettySize=auto;html=1;endArrow=none;endFill=0;exitX=0.5;exitY=0;exitDx=0;exitDy=0;" edge="1" parent="1" source="pH7Bs4LpN4uAQdPLpX-Y-32">
          <mxGeometry relative="1" as="geometry">
            <mxPoint x="400" y="930" as="targetPoint" />
            <Array as="points">
              <mxPoint x="510" y="930" />
            </Array>
          </mxGeometry>
        </mxCell>
        <mxCell id="pH7Bs4LpN4uAQdPLpX-Y-32" value="Transaction" style="swimlane;fontStyle=0;align=center;verticalAlign=top;childLayout=stackLayout;horizontal=1;startSize=30;horizontalStack=0;resizeParent=1;resizeParentMax=0;resizeLast=0;collapsible=0;marginBottom=0;html=1;whiteSpace=wrap;" vertex="1" parent="1">
          <mxGeometry x="440" y="960" width="140" height="140" as="geometry" />
        </mxCell>
        <mxCell id="pH7Bs4LpN4uAQdPLpX-Y-33" value="&lt;div&gt;&amp;nbsp; &amp;nbsp; + id : String&lt;/div&gt;&lt;div&gt;&amp;nbsp; &amp;nbsp; + user_id : String&lt;/div&gt;&lt;div&gt;&amp;nbsp; &amp;nbsp; + opt : String&lt;/div&gt;&lt;div&gt;&amp;nbsp; &amp;nbsp; + amount : Float&lt;/div&gt;&lt;div&gt;&amp;nbsp; &amp;nbsp; + status : String&lt;/div&gt;" style="text;html=1;strokeColor=none;fillColor=none;align=left;verticalAlign=middle;spacingLeft=4;spacingRight=4;overflow=hidden;rotatable=0;points=[[0,0.5],[1,0.5]];portConstraint=eastwest;whiteSpace=wrap;" vertex="1" parent="pH7Bs4LpN4uAQdPLpX-Y-32">
          <mxGeometry y="30" width="140" height="80" as="geometry" />
        </mxCell>
        <mxCell id="pH7Bs4LpN4uAQdPLpX-Y-34" value="" style="line;strokeWidth=1;fillColor=none;align=left;verticalAlign=middle;spacingTop=-1;spacingLeft=3;spacingRight=3;rotatable=0;labelPosition=right;points=[];portConstraint=eastwest;" vertex="1" parent="pH7Bs4LpN4uAQdPLpX-Y-32">
          <mxGeometry y="110" width="140" height="30" as="geometry" />
        </mxCell>
        <mxCell id="pH7Bs4LpN4uAQdPLpX-Y-96" style="edgeStyle=orthogonalEdgeStyle;rounded=0;orthogonalLoop=1;jettySize=auto;html=1;endArrow=none;endFill=0;" edge="1" parent="1" source="pH7Bs4LpN4uAQdPLpX-Y-35">
          <mxGeometry relative="1" as="geometry">
            <mxPoint x="1560" y="840" as="targetPoint" />
            <Array as="points">
              <mxPoint x="1600" y="840" />
              <mxPoint x="1550" y="840" />
            </Array>
          </mxGeometry>
        </mxCell>
        <mxCell id="pH7Bs4LpN4uAQdPLpX-Y-35" value="TransactionCreate&amp;nbsp;" style="swimlane;fontStyle=0;align=center;verticalAlign=top;childLayout=stackLayout;horizontal=1;startSize=30;horizontalStack=0;resizeParent=1;resizeParentMax=0;resizeLast=0;collapsible=0;marginBottom=0;html=1;whiteSpace=wrap;" vertex="1" parent="1">
          <mxGeometry x="1530" y="890" width="140" height="110" as="geometry" />
        </mxCell>
        <mxCell id="pH7Bs4LpN4uAQdPLpX-Y-36" value="&lt;div&gt;&amp;nbsp;+amount : float&lt;/div&gt;&lt;div&gt;&amp;nbsp; +opt : str&lt;/div&gt;&lt;div&gt;&amp;nbsp; +user_id : str&lt;/div&gt;" style="text;html=1;strokeColor=none;fillColor=none;align=left;verticalAlign=middle;spacingLeft=4;spacingRight=4;overflow=hidden;rotatable=0;points=[[0,0.5],[1,0.5]];portConstraint=eastwest;whiteSpace=wrap;" vertex="1" parent="pH7Bs4LpN4uAQdPLpX-Y-35">
          <mxGeometry y="30" width="140" height="50" as="geometry" />
        </mxCell>
        <mxCell id="pH7Bs4LpN4uAQdPLpX-Y-37" value="" style="line;strokeWidth=1;fillColor=none;align=left;verticalAlign=middle;spacingTop=-1;spacingLeft=3;spacingRight=3;rotatable=0;labelPosition=right;points=[];portConstraint=eastwest;" vertex="1" parent="pH7Bs4LpN4uAQdPLpX-Y-35">
          <mxGeometry y="80" width="140" height="30" as="geometry" />
        </mxCell>
        <mxCell id="pH7Bs4LpN4uAQdPLpX-Y-98" style="edgeStyle=orthogonalEdgeStyle;rounded=0;orthogonalLoop=1;jettySize=auto;html=1;exitX=0.5;exitY=0;exitDx=0;exitDy=0;endArrow=none;endFill=0;" edge="1" parent="1" source="pH7Bs4LpN4uAQdPLpX-Y-38">
          <mxGeometry relative="1" as="geometry">
            <mxPoint x="1450" y="840" as="targetPoint" />
          </mxGeometry>
        </mxCell>
        <mxCell id="pH7Bs4LpN4uAQdPLpX-Y-38" value="TransactionUpdate" style="swimlane;fontStyle=0;align=center;verticalAlign=top;childLayout=stackLayout;horizontal=1;startSize=30;horizontalStack=0;resizeParent=1;resizeParentMax=0;resizeLast=0;collapsible=0;marginBottom=0;html=1;whiteSpace=wrap;" vertex="1" parent="1">
          <mxGeometry x="1380" y="890" width="140" height="110" as="geometry" />
        </mxCell>
        <mxCell id="pH7Bs4LpN4uAQdPLpX-Y-39" value="&lt;div&gt;&amp;nbsp;+amount : float&lt;/div&gt;&lt;div&gt;&amp;nbsp; +id : str&lt;/div&gt;&lt;div&gt;&amp;nbsp; +status : str&lt;/div&gt;" style="text;html=1;strokeColor=none;fillColor=none;align=left;verticalAlign=middle;spacingLeft=4;spacingRight=4;overflow=hidden;rotatable=0;points=[[0,0.5],[1,0.5]];portConstraint=eastwest;whiteSpace=wrap;" vertex="1" parent="pH7Bs4LpN4uAQdPLpX-Y-38">
          <mxGeometry y="30" width="140" height="50" as="geometry" />
        </mxCell>
        <mxCell id="pH7Bs4LpN4uAQdPLpX-Y-40" value="" style="line;strokeWidth=1;fillColor=none;align=left;verticalAlign=middle;spacingTop=-1;spacingLeft=3;spacingRight=3;rotatable=0;labelPosition=right;points=[];portConstraint=eastwest;" vertex="1" parent="pH7Bs4LpN4uAQdPLpX-Y-38">
          <mxGeometry y="80" width="140" height="30" as="geometry" />
        </mxCell>
        <mxCell id="pH7Bs4LpN4uAQdPLpX-Y-41" value="User" style="swimlane;fontStyle=0;align=center;verticalAlign=top;childLayout=stackLayout;horizontal=1;startSize=30;horizontalStack=0;resizeParent=1;resizeParentMax=0;resizeLast=0;collapsible=0;marginBottom=0;html=1;whiteSpace=wrap;" vertex="1" parent="1">
          <mxGeometry x="260" y="960" width="140" height="130" as="geometry" />
        </mxCell>
        <mxCell id="pH7Bs4LpN4uAQdPLpX-Y-42" value="&lt;div&gt;&amp;nbsp;&lt;span style=&quot;white-space: pre;&quot;&gt;&#x9;&lt;/span&gt;+ id : String&lt;/div&gt;&lt;div&gt;&amp;nbsp; &amp;nbsp; + name : String&lt;/div&gt;&lt;div&gt;&amp;nbsp; &amp;nbsp; + balance : Float&lt;/div&gt;&lt;div&gt;&amp;nbsp; &amp;nbsp; + status : String&lt;/div&gt;" style="text;html=1;strokeColor=none;fillColor=none;align=left;verticalAlign=middle;spacingLeft=4;spacingRight=4;overflow=hidden;rotatable=0;points=[[0,0.5],[1,0.5]];portConstraint=eastwest;whiteSpace=wrap;" vertex="1" parent="pH7Bs4LpN4uAQdPLpX-Y-41">
          <mxGeometry y="30" width="140" height="70" as="geometry" />
        </mxCell>
        <mxCell id="pH7Bs4LpN4uAQdPLpX-Y-43" value="" style="line;strokeWidth=1;fillColor=none;align=left;verticalAlign=middle;spacingTop=-1;spacingLeft=3;spacingRight=3;rotatable=0;labelPosition=right;points=[];portConstraint=eastwest;" vertex="1" parent="pH7Bs4LpN4uAQdPLpX-Y-41">
          <mxGeometry y="100" width="140" height="30" as="geometry" />
        </mxCell>
        <mxCell id="pH7Bs4LpN4uAQdPLpX-Y-44" value="Database" style="swimlane;fontStyle=0;align=center;verticalAlign=top;childLayout=stackLayout;horizontal=1;startSize=30;horizontalStack=0;resizeParent=1;resizeParentMax=0;resizeLast=0;collapsible=0;marginBottom=0;html=1;whiteSpace=wrap;" vertex="1" parent="1">
          <mxGeometry x="100" y="788" width="160" height="94" as="geometry" />
        </mxCell>
        <mxCell id="pH7Bs4LpN4uAQdPLpX-Y-45" value="&lt;div&gt;&lt;div&gt;&amp;nbsp;+base&lt;/div&gt;&lt;div&gt;&amp;nbsp;&amp;nbsp;&lt;/div&gt;&lt;/div&gt;" style="text;html=1;strokeColor=none;fillColor=none;align=left;verticalAlign=middle;spacingLeft=4;spacingRight=4;overflow=hidden;rotatable=0;points=[[0,0.5],[1,0.5]];portConstraint=eastwest;whiteSpace=wrap;" vertex="1" parent="pH7Bs4LpN4uAQdPLpX-Y-44">
          <mxGeometry y="30" width="160" height="20" as="geometry" />
        </mxCell>
        <mxCell id="pH7Bs4LpN4uAQdPLpX-Y-46" value="" style="line;strokeWidth=1;fillColor=none;align=left;verticalAlign=middle;spacingTop=-1;spacingLeft=3;spacingRight=3;rotatable=0;labelPosition=right;points=[];portConstraint=eastwest;" vertex="1" parent="pH7Bs4LpN4uAQdPLpX-Y-44">
          <mxGeometry y="50" width="160" height="8" as="geometry" />
        </mxCell>
        <mxCell id="pH7Bs4LpN4uAQdPLpX-Y-47" value="&lt;div&gt;+ create_tables() : void&lt;/div&gt;&lt;div&gt;&amp;nbsp; &amp;nbsp; + get_session() : Session&lt;/div&gt;" style="text;html=1;strokeColor=none;fillColor=none;align=left;verticalAlign=middle;spacingLeft=4;spacingRight=4;overflow=hidden;rotatable=0;points=[[0,0.5],[1,0.5]];portConstraint=eastwest;whiteSpace=wrap;" vertex="1" parent="pH7Bs4LpN4uAQdPLpX-Y-44">
          <mxGeometry y="58" width="160" height="36" as="geometry" />
        </mxCell>
        <mxCell id="pH7Bs4LpN4uAQdPLpX-Y-75" style="edgeStyle=orthogonalEdgeStyle;rounded=0;orthogonalLoop=1;jettySize=auto;html=1;exitX=0.5;exitY=1;exitDx=0;exitDy=0;entryX=0.5;entryY=0;entryDx=0;entryDy=0;endArrow=none;endFill=0;" edge="1" parent="1" source="pH7Bs4LpN4uAQdPLpX-Y-54" target="pH7Bs4LpN4uAQdPLpX-Y-60">
          <mxGeometry relative="1" as="geometry" />
        </mxCell>
        <mxCell id="pH7Bs4LpN4uAQdPLpX-Y-54" value="UserRoutes" style="swimlane;fontStyle=0;align=center;verticalAlign=top;childLayout=stackLayout;horizontal=1;startSize=30;horizontalStack=0;resizeParent=1;resizeParentMax=0;resizeLast=0;collapsible=0;marginBottom=0;html=1;whiteSpace=wrap;" vertex="1" parent="1">
          <mxGeometry x="600" y="790" width="140" height="80" as="geometry" />
        </mxCell>
        <mxCell id="pH7Bs4LpN4uAQdPLpX-Y-55" value="&amp;nbsp;+ router : APIRouter" style="text;html=1;strokeColor=none;fillColor=none;align=left;verticalAlign=middle;spacingLeft=4;spacingRight=4;overflow=hidden;rotatable=0;points=[[0,0.5],[1,0.5]];portConstraint=eastwest;whiteSpace=wrap;" vertex="1" parent="pH7Bs4LpN4uAQdPLpX-Y-54">
          <mxGeometry y="30" width="140" height="20" as="geometry" />
        </mxCell>
        <mxCell id="pH7Bs4LpN4uAQdPLpX-Y-56" value="" style="line;strokeWidth=1;fillColor=none;align=left;verticalAlign=middle;spacingTop=-1;spacingLeft=3;spacingRight=3;rotatable=0;labelPosition=right;points=[];portConstraint=eastwest;" vertex="1" parent="pH7Bs4LpN4uAQdPLpX-Y-54">
          <mxGeometry y="50" width="140" height="30" as="geometry" />
        </mxCell>
        <mxCell id="pH7Bs4LpN4uAQdPLpX-Y-74" style="edgeStyle=orthogonalEdgeStyle;rounded=0;orthogonalLoop=1;jettySize=auto;html=1;exitX=0.5;exitY=1;exitDx=0;exitDy=0;entryX=0.5;entryY=0;entryDx=0;entryDy=0;endArrow=none;endFill=0;" edge="1" parent="1" source="pH7Bs4LpN4uAQdPLpX-Y-57" target="pH7Bs4LpN4uAQdPLpX-Y-60">
          <mxGeometry relative="1" as="geometry" />
        </mxCell>
        <mxCell id="pH7Bs4LpN4uAQdPLpX-Y-77" style="edgeStyle=orthogonalEdgeStyle;rounded=0;orthogonalLoop=1;jettySize=auto;html=1;exitX=0.25;exitY=0;exitDx=0;exitDy=0;endArrow=none;endFill=0;" edge="1" parent="1" source="pH7Bs4LpN4uAQdPLpX-Y-57">
          <mxGeometry relative="1" as="geometry">
            <mxPoint x="670" y="760" as="targetPoint" />
            <Array as="points">
              <mxPoint x="805" y="760" />
            </Array>
          </mxGeometry>
        </mxCell>
        <mxCell id="pH7Bs4LpN4uAQdPLpX-Y-57" value="TransactionRoutes" style="swimlane;fontStyle=0;align=center;verticalAlign=top;childLayout=stackLayout;horizontal=1;startSize=30;horizontalStack=0;resizeParent=1;resizeParentMax=0;resizeLast=0;collapsible=0;marginBottom=0;html=1;whiteSpace=wrap;" vertex="1" parent="1">
          <mxGeometry x="770" y="780" width="140" height="90" as="geometry" />
        </mxCell>
        <mxCell id="pH7Bs4LpN4uAQdPLpX-Y-58" value="+ router : APIRouter" style="text;html=1;strokeColor=none;fillColor=none;align=left;verticalAlign=middle;spacingLeft=4;spacingRight=4;overflow=hidden;rotatable=0;points=[[0,0.5],[1,0.5]];portConstraint=eastwest;whiteSpace=wrap;" vertex="1" parent="pH7Bs4LpN4uAQdPLpX-Y-57">
          <mxGeometry y="30" width="140" height="30" as="geometry" />
        </mxCell>
        <mxCell id="pH7Bs4LpN4uAQdPLpX-Y-59" value="" style="line;strokeWidth=1;fillColor=none;align=left;verticalAlign=middle;spacingTop=-1;spacingLeft=3;spacingRight=3;rotatable=0;labelPosition=right;points=[];portConstraint=eastwest;" vertex="1" parent="pH7Bs4LpN4uAQdPLpX-Y-57">
          <mxGeometry y="60" width="140" height="30" as="geometry" />
        </mxCell>
        <mxCell id="pH7Bs4LpN4uAQdPLpX-Y-60" value="FastAPI" style="swimlane;fontStyle=0;align=center;verticalAlign=top;childLayout=stackLayout;horizontal=1;startSize=30;horizontalStack=0;resizeParent=1;resizeParentMax=0;resizeLast=0;collapsible=0;marginBottom=0;html=1;whiteSpace=wrap;" vertex="1" parent="1">
          <mxGeometry x="640" y="910" width="230" height="120" as="geometry" />
        </mxCell>
        <mxCell id="pH7Bs4LpN4uAQdPLpX-Y-62" value="" style="line;strokeWidth=1;fillColor=none;align=left;verticalAlign=middle;spacingTop=-1;spacingLeft=3;spacingRight=3;rotatable=0;labelPosition=right;points=[];portConstraint=eastwest;" vertex="1" parent="pH7Bs4LpN4uAQdPLpX-Y-60">
          <mxGeometry y="30" width="230" height="8" as="geometry" />
        </mxCell>
        <mxCell id="pH7Bs4LpN4uAQdPLpX-Y-63" value="+ include_router(router: APIRouter, prefix: str, tags: list)&lt;div&gt;&lt;div&gt;+ post(path: str)&lt;/div&gt;&lt;div&gt;&amp;nbsp;+ get(path: str)&lt;/div&gt;&lt;/div&gt;" style="text;html=1;strokeColor=none;fillColor=none;align=left;verticalAlign=middle;spacingLeft=4;spacingRight=4;overflow=hidden;rotatable=0;points=[[0,0.5],[1,0.5]];portConstraint=eastwest;whiteSpace=wrap;" vertex="1" parent="pH7Bs4LpN4uAQdPLpX-Y-60">
          <mxGeometry y="38" width="230" height="82" as="geometry" />
        </mxCell>
        <mxCell id="pH7Bs4LpN4uAQdPLpX-Y-70" style="edgeStyle=orthogonalEdgeStyle;rounded=0;orthogonalLoop=1;jettySize=auto;html=1;exitX=0.5;exitY=0;exitDx=0;exitDy=0;endArrow=none;endFill=0;" edge="1" parent="1" source="pH7Bs4LpN4uAQdPLpX-Y-65">
          <mxGeometry relative="1" as="geometry">
            <mxPoint x="390" y="760" as="targetPoint" />
            <Array as="points">
              <mxPoint x="420" y="798" />
              <mxPoint x="420" y="770" />
              <mxPoint x="390" y="770" />
            </Array>
          </mxGeometry>
        </mxCell>
        <mxCell id="pH7Bs4LpN4uAQdPLpX-Y-65" value="Models" style="swimlane;fontStyle=0;align=center;verticalAlign=top;childLayout=stackLayout;horizontal=1;startSize=30;horizontalStack=0;resizeParent=1;resizeParentMax=0;resizeLast=0;collapsible=0;marginBottom=0;html=1;whiteSpace=wrap;" vertex="1" parent="1">
          <mxGeometry x="310" y="798" width="200" height="100" as="geometry" />
        </mxCell>
        <mxCell id="pH7Bs4LpN4uAQdPLpX-Y-67" value="" style="line;strokeWidth=1;fillColor=none;align=left;verticalAlign=middle;spacingTop=-1;spacingLeft=3;spacingRight=3;rotatable=0;labelPosition=right;points=[];portConstraint=eastwest;" vertex="1" parent="pH7Bs4LpN4uAQdPLpX-Y-65">
          <mxGeometry y="30" width="200" height="8" as="geometry" />
        </mxCell>
        <mxCell id="pH7Bs4LpN4uAQdPLpX-Y-68" value="&lt;div style=&quot;&quot;&gt;&lt;span style=&quot;text-wrap-mode: nowrap; background-color: transparent; color: light-dark(rgb(0, 0, 0), rgb(255, 255, 255));&quot;&gt;- _define_users() : User&lt;/span&gt;&lt;/div&gt;&lt;div style=&quot;&quot;&gt;&lt;span style=&quot;text-wrap-mode: nowrap;&quot;&gt;- _define_transactions() : Transaction&lt;/span&gt;&lt;/div&gt;&lt;div style=&quot;&quot;&gt;&lt;span style=&quot;background-color: transparent; color: light-dark(rgb(0, 0, 0), rgb(255, 255, 255)); text-wrap-mode: nowrap;&quot;&gt;+ define() : (User, Transaction)&lt;/span&gt;&lt;/div&gt;" style="text;html=1;strokeColor=none;fillColor=none;align=center;verticalAlign=middle;spacingLeft=4;spacingRight=4;overflow=hidden;rotatable=0;points=[[0,0.5],[1,0.5]];portConstraint=eastwest;whiteSpace=wrap;" vertex="1" parent="pH7Bs4LpN4uAQdPLpX-Y-65">
          <mxGeometry y="38" width="200" height="62" as="geometry" />
        </mxCell>
        <mxCell id="pH7Bs4LpN4uAQdPLpX-Y-69" style="edgeStyle=orthogonalEdgeStyle;rounded=0;orthogonalLoop=1;jettySize=auto;html=1;entryX=0.54;entryY=1.024;entryDx=0;entryDy=0;entryPerimeter=0;endArrow=none;endFill=0;" edge="1" parent="1" source="pH7Bs4LpN4uAQdPLpX-Y-44" target="pH7Bs4LpN4uAQdPLpX-Y-5">
          <mxGeometry relative="1" as="geometry">
            <Array as="points">
              <mxPoint x="180" y="760" />
              <mxPoint x="451" y="760" />
            </Array>
          </mxGeometry>
        </mxCell>
        <mxCell id="pH7Bs4LpN4uAQdPLpX-Y-71" style="edgeStyle=orthogonalEdgeStyle;rounded=0;orthogonalLoop=1;jettySize=auto;html=1;exitX=0.5;exitY=0;exitDx=0;exitDy=0;endArrow=none;endFill=0;" edge="1" parent="1" source="pH7Bs4LpN4uAQdPLpX-Y-54">
          <mxGeometry relative="1" as="geometry">
            <mxPoint x="446" y="760" as="targetPoint" />
            <Array as="points">
              <mxPoint x="670" y="760" />
              <mxPoint x="446" y="760" />
            </Array>
          </mxGeometry>
        </mxCell>
        <mxCell id="pH7Bs4LpN4uAQdPLpX-Y-73" style="edgeStyle=orthogonalEdgeStyle;rounded=0;orthogonalLoop=1;jettySize=auto;html=1;exitX=1;exitY=0.5;exitDx=0;exitDy=0;endArrow=none;endFill=0;entryX=1;entryY=0.25;entryDx=0;entryDy=0;" edge="1" parent="1" source="pH7Bs4LpN4uAQdPLpX-Y-3" target="pH7Bs4LpN4uAQdPLpX-Y-60">
          <mxGeometry relative="1" as="geometry">
            <mxPoint x="640" y="964" as="targetPoint" />
            <Array as="points">
              <mxPoint x="930" y="665" />
              <mxPoint x="930" y="940" />
            </Array>
          </mxGeometry>
        </mxCell>
        <mxCell id="pH7Bs4LpN4uAQdPLpX-Y-78" value="BankAPI&amp;nbsp;" style="swimlane;fontStyle=0;align=center;verticalAlign=top;childLayout=stackLayout;horizontal=1;startSize=30;horizontalStack=0;resizeParent=1;resizeParentMax=0;resizeLast=0;collapsible=0;marginBottom=0;html=1;whiteSpace=wrap;" vertex="1" parent="1">
          <mxGeometry x="950" y="890" width="220" height="168" as="geometry" />
        </mxCell>
        <mxCell id="pH7Bs4LpN4uAQdPLpX-Y-79" value="&lt;div&gt;&amp;nbsp; &amp;nbsp; - app : FastAPI&lt;/div&gt;&lt;div&gt;&amp;nbsp; &amp;nbsp; - payments : dict&lt;/div&gt;" style="text;html=1;strokeColor=none;fillColor=none;align=left;verticalAlign=middle;spacingLeft=4;spacingRight=4;overflow=hidden;rotatable=0;points=[[0,0.5],[1,0.5]];portConstraint=eastwest;whiteSpace=wrap;" vertex="1" parent="pH7Bs4LpN4uAQdPLpX-Y-78">
          <mxGeometry y="30" width="220" height="50" as="geometry" />
        </mxCell>
        <mxCell id="pH7Bs4LpN4uAQdPLpX-Y-80" value="" style="line;strokeWidth=1;fillColor=none;align=left;verticalAlign=middle;spacingTop=-1;spacingLeft=3;spacingRight=3;rotatable=0;labelPosition=right;points=[];portConstraint=eastwest;" vertex="1" parent="pH7Bs4LpN4uAQdPLpX-Y-78">
          <mxGeometry y="80" width="220" height="8" as="geometry" />
        </mxCell>
        <mxCell id="pH7Bs4LpN4uAQdPLpX-Y-81" value="&lt;div&gt;&amp;nbsp;- _setup_routes() : void&lt;/div&gt;&lt;div&gt;&amp;nbsp; &amp;nbsp; - _send_webhook(webhook_url: str, payment_data: dict) : void&lt;/div&gt;&lt;div&gt;&amp;nbsp; &amp;nbsp; + get_app() : FastAPI&lt;/div&gt;" style="text;html=1;strokeColor=none;fillColor=none;align=left;verticalAlign=middle;spacingLeft=4;spacingRight=4;overflow=hidden;rotatable=0;points=[[0,0.5],[1,0.5]];portConstraint=eastwest;whiteSpace=wrap;" vertex="1" parent="pH7Bs4LpN4uAQdPLpX-Y-78">
          <mxGeometry y="88" width="220" height="80" as="geometry" />
        </mxCell>
        <mxCell id="pH7Bs4LpN4uAQdPLpX-Y-94" style="edgeStyle=orthogonalEdgeStyle;rounded=0;orthogonalLoop=1;jettySize=auto;html=1;exitX=0.5;exitY=0;exitDx=0;exitDy=0;" edge="1" parent="1" source="pH7Bs4LpN4uAQdPLpX-Y-82">
          <mxGeometry relative="1" as="geometry">
            <mxPoint x="1560" y="800" as="targetPoint" />
            <Array as="points">
              <mxPoint x="1290" y="840" />
              <mxPoint x="1560" y="840" />
              <mxPoint x="1560" y="800" />
            </Array>
          </mxGeometry>
        </mxCell>
        <mxCell id="pH7Bs4LpN4uAQdPLpX-Y-82" value="PaymentRequestCreate" style="swimlane;fontStyle=0;align=center;verticalAlign=top;childLayout=stackLayout;horizontal=1;startSize=30;horizontalStack=0;resizeParent=1;resizeParentMax=0;resizeLast=0;collapsible=0;marginBottom=0;html=1;whiteSpace=wrap;" vertex="1" parent="1">
          <mxGeometry x="1220" y="890" width="140" height="110" as="geometry" />
        </mxCell>
        <mxCell id="pH7Bs4LpN4uAQdPLpX-Y-83" value="&lt;div&gt;&amp;nbsp; &amp;nbsp; id : str&lt;/div&gt;&lt;div&gt;&amp;nbsp; &amp;nbsp; amount : float&lt;/div&gt;&lt;div&gt;&amp;nbsp; &amp;nbsp; status : str&lt;/div&gt;" style="text;html=1;strokeColor=none;fillColor=none;align=left;verticalAlign=middle;spacingLeft=4;spacingRight=4;overflow=hidden;rotatable=0;points=[[0,0.5],[1,0.5]];portConstraint=eastwest;whiteSpace=wrap;" vertex="1" parent="pH7Bs4LpN4uAQdPLpX-Y-82">
          <mxGeometry y="30" width="140" height="50" as="geometry" />
        </mxCell>
        <mxCell id="pH7Bs4LpN4uAQdPLpX-Y-84" value="" style="line;strokeWidth=1;fillColor=none;align=left;verticalAlign=middle;spacingTop=-1;spacingLeft=3;spacingRight=3;rotatable=0;labelPosition=right;points=[];portConstraint=eastwest;" vertex="1" parent="pH7Bs4LpN4uAQdPLpX-Y-82">
          <mxGeometry y="80" width="140" height="30" as="geometry" />
        </mxCell>
        <mxCell id="pH7Bs4LpN4uAQdPLpX-Y-86" style="edgeStyle=orthogonalEdgeStyle;rounded=0;orthogonalLoop=1;jettySize=auto;html=1;exitX=0;exitY=0.5;exitDx=0;exitDy=0;entryX=1;entryY=0.5;entryDx=0;entryDy=0;endArrow=none;endFill=0;" edge="1" parent="1" source="pH7Bs4LpN4uAQdPLpX-Y-83" target="pH7Bs4LpN4uAQdPLpX-Y-79">
          <mxGeometry relative="1" as="geometry" />
        </mxCell>
        <mxCell id="pH7Bs4LpN4uAQdPLpX-Y-87" style="edgeStyle=orthogonalEdgeStyle;rounded=0;orthogonalLoop=1;jettySize=auto;html=1;entryX=1;entryY=0.159;entryDx=0;entryDy=0;entryPerimeter=0;endArrow=none;endFill=0;" edge="1" parent="1" source="pH7Bs4LpN4uAQdPLpX-Y-79" target="pH7Bs4LpN4uAQdPLpX-Y-63">
          <mxGeometry relative="1" as="geometry">
            <Array as="points">
              <mxPoint x="930" y="961" />
              <mxPoint x="930" y="961" />
            </Array>
          </mxGeometry>
        </mxCell>
        <mxCell id="pH7Bs4LpN4uAQdPLpX-Y-91" value="&lt;code&gt;BaseModel(&lt;/code&gt;&amp;nbsp;Pydantic)" style="swimlane;fontStyle=0;align=center;verticalAlign=top;childLayout=stackLayout;horizontal=1;startSize=30;horizontalStack=0;resizeParent=1;resizeParentMax=0;resizeLast=0;collapsible=0;marginBottom=0;html=1;whiteSpace=wrap;" vertex="1" parent="1">
          <mxGeometry x="1490" y="740" width="140" height="60" as="geometry" />
        </mxCell>
        <mxCell id="pH7Bs4LpN4uAQdPLpX-Y-93" value="" style="line;strokeWidth=1;fillColor=none;align=left;verticalAlign=middle;spacingTop=-1;spacingLeft=3;spacingRight=3;rotatable=0;labelPosition=right;points=[];portConstraint=eastwest;" vertex="1" parent="pH7Bs4LpN4uAQdPLpX-Y-91">
          <mxGeometry y="30" width="140" height="30" as="geometry" />
        </mxCell>
        <mxCell id="pH7Bs4LpN4uAQdPLpX-Y-99" style="edgeStyle=orthogonalEdgeStyle;rounded=0;orthogonalLoop=1;jettySize=auto;html=1;exitX=0.5;exitY=0;exitDx=0;exitDy=0;entryX=0.49;entryY=1.016;entryDx=0;entryDy=0;entryPerimeter=0;endArrow=none;endFill=0;" edge="1" parent="1" source="pH7Bs4LpN4uAQdPLpX-Y-41" target="pH7Bs4LpN4uAQdPLpX-Y-68">
          <mxGeometry relative="1" as="geometry">
            <Array as="points">
              <mxPoint x="330" y="930" />
              <mxPoint x="408" y="930" />
            </Array>
          </mxGeometry>
        </mxCell>
        <mxCell id="pH7Bs4LpN4uAQdPLpX-Y-106" value="Routes&lt;br&gt;{abstract}" style="swimlane;fontStyle=0;align=center;verticalAlign=top;childLayout=stackLayout;horizontal=1;startSize=40;horizontalStack=0;resizeParent=1;resizeParentMax=0;resizeLast=0;collapsible=0;marginBottom=0;html=1;whiteSpace=wrap;" vertex="1" parent="1">
          <mxGeometry x="120" y="510" width="140" height="168" as="geometry" />
        </mxCell>
        <mxCell id="pH7Bs4LpN4uAQdPLpX-Y-107" value="attributes" style="text;html=1;strokeColor=none;fillColor=none;align=center;verticalAlign=middle;spacingLeft=4;spacingRight=4;overflow=hidden;rotatable=0;points=[[0,0.5],[1,0.5]];portConstraint=eastwest;whiteSpace=wrap;" vertex="1" parent="pH7Bs4LpN4uAQdPLpX-Y-106">
          <mxGeometry y="40" width="140" height="20" as="geometry" />
        </mxCell>
        <mxCell id="pH7Bs4LpN4uAQdPLpX-Y-108" value="attribute1" style="text;html=1;strokeColor=none;fillColor=none;align=left;verticalAlign=middle;spacingLeft=4;spacingRight=4;overflow=hidden;rotatable=0;points=[[0,0.5],[1,0.5]];portConstraint=eastwest;whiteSpace=wrap;" vertex="1" parent="pH7Bs4LpN4uAQdPLpX-Y-106">
          <mxGeometry y="60" width="140" height="20" as="geometry" />
        </mxCell>
        <mxCell id="pH7Bs4LpN4uAQdPLpX-Y-109" value="inherited attribute2" style="text;html=1;strokeColor=none;fillColor=none;align=left;verticalAlign=middle;spacingLeft=4;spacingRight=4;overflow=hidden;rotatable=0;points=[[0,0.5],[1,0.5]];portConstraint=eastwest;fontColor=#808080;whiteSpace=wrap;" vertex="1" parent="pH7Bs4LpN4uAQdPLpX-Y-106">
          <mxGeometry y="80" width="140" height="20" as="geometry" />
        </mxCell>
        <mxCell id="pH7Bs4LpN4uAQdPLpX-Y-110" value="..." style="text;html=1;strokeColor=none;fillColor=none;align=left;verticalAlign=middle;spacingLeft=4;spacingRight=4;overflow=hidden;rotatable=0;points=[[0,0.5],[1,0.5]];portConstraint=eastwest;whiteSpace=wrap;" vertex="1" parent="pH7Bs4LpN4uAQdPLpX-Y-106">
          <mxGeometry y="100" width="140" height="20" as="geometry" />
        </mxCell>
        <mxCell id="pH7Bs4LpN4uAQdPLpX-Y-111" value="" style="line;strokeWidth=1;fillColor=none;align=left;verticalAlign=middle;spacingTop=-1;spacingLeft=3;spacingRight=3;rotatable=0;labelPosition=right;points=[];portConstraint=eastwest;" vertex="1" parent="pH7Bs4LpN4uAQdPLpX-Y-106">
          <mxGeometry y="120" width="140" height="8" as="geometry" />
        </mxCell>
        <mxCell id="pH7Bs4LpN4uAQdPLpX-Y-112" value="operations" style="text;html=1;strokeColor=none;fillColor=none;align=center;verticalAlign=middle;spacingLeft=4;spacingRight=4;overflow=hidden;rotatable=0;points=[[0,0.5],[1,0.5]];portConstraint=eastwest;whiteSpace=wrap;" vertex="1" parent="pH7Bs4LpN4uAQdPLpX-Y-106">
          <mxGeometry y="128" width="140" height="20" as="geometry" />
        </mxCell>
        <mxCell id="pH7Bs4LpN4uAQdPLpX-Y-113" value="operation1" style="text;html=1;strokeColor=none;fillColor=none;align=left;verticalAlign=middle;spacingLeft=4;spacingRight=4;overflow=hidden;rotatable=0;points=[[0,0.5],[1,0.5]];portConstraint=eastwest;whiteSpace=wrap;" vertex="1" parent="pH7Bs4LpN4uAQdPLpX-Y-106">
          <mxGeometry y="148" width="140" height="20" as="geometry" />
        </mxCell>
        <mxCell id="pH7Bs4LpN4uAQdPLpX-Y-114" value="&lt;i&gt;&lt;b&gt;Routes&lt;/b&gt;&lt;/i&gt;" style="swimlane;fontStyle=0;align=center;verticalAlign=top;childLayout=stackLayout;horizontal=1;startSize=30;horizontalStack=0;resizeParent=1;resizeParentMax=0;resizeLast=0;collapsible=0;marginBottom=0;html=1;whiteSpace=wrap;" vertex="1" parent="1">
          <mxGeometry x="1020" y="320" width="150" height="130" as="geometry" />
        </mxCell>
        <mxCell id="pH7Bs4LpN4uAQdPLpX-Y-115" value="&lt;div&gt;&amp;nbsp;- database : Database&lt;/div&gt;&lt;div&gt;&amp;nbsp; &amp;nbsp; - router : APIRouter&lt;/div&gt;" style="text;html=1;strokeColor=none;fillColor=none;align=left;verticalAlign=middle;spacingLeft=4;spacingRight=4;overflow=hidden;rotatable=0;points=[[0,0.5],[1,0.5]];portConstraint=eastwest;whiteSpace=wrap;" vertex="1" parent="pH7Bs4LpN4uAQdPLpX-Y-114">
          <mxGeometry y="30" width="150" height="50" as="geometry" />
        </mxCell>
        <mxCell id="pH7Bs4LpN4uAQdPLpX-Y-116" value="" style="line;strokeWidth=1;fillColor=none;align=left;verticalAlign=middle;spacingTop=-1;spacingLeft=3;spacingRight=3;rotatable=0;labelPosition=right;points=[];portConstraint=eastwest;" vertex="1" parent="pH7Bs4LpN4uAQdPLpX-Y-114">
          <mxGeometry y="80" width="150" height="8" as="geometry" />
        </mxCell>
        <mxCell id="pH7Bs4LpN4uAQdPLpX-Y-117" value="+ _register_routes() : void" style="text;html=1;strokeColor=none;fillColor=none;align=left;verticalAlign=middle;spacingLeft=4;spacingRight=4;overflow=hidden;rotatable=0;points=[[0,0.5],[1,0.5]];portConstraint=eastwest;whiteSpace=wrap;" vertex="1" parent="pH7Bs4LpN4uAQdPLpX-Y-114">
          <mxGeometry y="88" width="150" height="42" as="geometry" />
        </mxCell>
        <mxCell id="pH7Bs4LpN4uAQdPLpX-Y-119" style="edgeStyle=orthogonalEdgeStyle;rounded=0;orthogonalLoop=1;jettySize=auto;html=1;" edge="1" parent="1" source="pH7Bs4LpN4uAQdPLpX-Y-23">
          <mxGeometry relative="1" as="geometry">
            <mxPoint x="1095" y="451" as="targetPoint" />
            <Array as="points">
              <mxPoint x="1095" y="451" />
            </Array>
          </mxGeometry>
        </mxCell>
      </root>
    </mxGraphModel>
  </diagram>
</mxfile>
